<svg width="1500" height="529" viewBox="0 0 1500 529" fill="none" xmlns="http://www.w3.org/2000/svg">
<path d="M345.656 284.726L352.455 280.969L344.939 267.368L338.141 271.126C332.928 274.01 328.309 277.857 324.529 282.462L293.429 264.5L324.533 246.538C328.312 251.143 332.931 254.99 338.144 257.875L344.943 261.632L352.458 248.032L345.66 244.274C342.93 242.766 340.439 240.862 338.268 238.623L357 227.788L349.23 214.349L330.512 225.15C329.653 222.148 329.246 219.035 329.304 215.914L329.449 208.144L313.909 207.855L313.765 215.624C313.655 221.576 314.672 227.494 316.763 233.068L285.659 251.041V215.119C291.536 214.147 297.176 212.071 302.279 208.999L308.933 204.99L300.913 191.679L294.259 195.688C291.584 197.296 288.686 198.499 285.659 199.258V179.739H270.119V199.258C267.092 198.499 264.194 197.296 261.52 195.688L254.866 191.679L246.845 204.99L253.499 208.999C258.603 212.071 264.242 214.147 270.119 215.119V251.041L239.015 233.068C241.113 227.491 242.135 221.567 242.028 215.61L241.883 207.841L226.344 208.13L226.488 215.9C226.546 219.021 226.139 222.134 225.281 225.135L206.548 214.349L198.778 227.805L217.514 238.627C215.343 240.865 212.852 242.77 210.122 244.277L203.324 248.032L210.839 261.632L217.638 257.875C222.851 254.99 227.47 251.143 231.249 246.538L262.35 264.5L231.246 282.462C227.466 277.857 222.847 274.01 217.634 271.126L210.839 267.368L203.324 280.969L210.122 284.726C212.852 286.234 215.343 288.138 217.514 290.377L198.778 301.23L206.548 314.686L225.284 303.868C226.143 306.87 226.55 309.982 226.492 313.104L226.347 320.874L241.887 321.163L242.032 313.393C242.138 307.435 241.114 301.51 239.015 295.932L270.119 277.959V313.881C264.242 314.853 258.603 316.93 253.499 320.001L246.845 324.01L254.866 337.321L261.52 333.312C264.194 331.704 267.092 330.501 270.119 329.742V349.262H285.659V329.742C288.686 330.501 291.584 331.704 294.259 333.312L300.913 337.321L308.933 324.01L302.279 320.001C297.176 316.93 291.536 314.853 285.659 313.881V277.959L316.763 295.932C314.666 301.509 313.644 307.433 313.75 313.39L313.895 321.16L329.435 320.87L329.29 313.1C329.235 309.973 329.647 306.856 330.512 303.851L349.23 314.668L357 301.23L338.282 290.391C340.446 288.149 342.931 286.24 345.656 284.726Z" fill="#1F86FF"/>
<path d="M488.688 326L445.675 215.462C445.798 217.621 446.045 221.321 446.415 226.562C446.847 231.742 447.248 237.724 447.618 244.507C447.988 251.229 448.173 257.951 448.173 264.672V326H431.523V198.535H455.85L499.325 309.35C499.202 307.253 498.924 303.769 498.493 298.897C498.061 293.964 497.66 288.137 497.29 281.415C496.982 274.693 496.828 267.509 496.828 259.862V198.535H513.478V326H488.688ZM583.613 226.193C597.549 226.193 608.125 230.817 615.34 240.067C622.617 249.317 626.255 261.682 626.255 277.16C626.255 287.212 624.59 296.092 621.26 303.8C617.992 311.508 613.182 317.521 606.83 321.837C600.479 326.154 592.678 328.313 583.428 328.313C569.491 328.313 558.854 323.688 551.515 314.438C544.239 305.187 540.6 292.823 540.6 277.345C540.6 267.232 542.234 258.352 545.503 250.705C548.833 242.997 553.674 236.984 560.025 232.667C566.439 228.351 574.301 226.193 583.613 226.193ZM583.613 240.345C575.596 240.345 569.553 243.367 565.483 249.41C561.413 255.392 559.378 264.703 559.378 277.345C559.378 289.863 561.382 299.144 565.39 305.187C569.399 311.169 575.411 314.16 583.428 314.16C591.444 314.16 597.457 311.169 601.465 305.187C605.474 299.144 607.478 289.802 607.478 277.16C607.478 264.58 605.474 255.299 601.465 249.317C597.457 243.336 591.506 240.345 583.613 240.345ZM674.283 240.715C677.736 236.152 681.775 232.606 686.4 230.077C691.087 227.487 696.175 226.193 701.663 226.193C710.296 226.193 717.295 228.32 722.66 232.575C728.025 236.768 731.941 242.688 734.408 250.335C736.875 257.92 738.108 266.862 738.108 277.16C738.108 287.027 736.628 295.814 733.668 303.522C730.708 311.231 726.36 317.305 720.625 321.745C714.89 326.123 707.83 328.313 699.443 328.313C688.281 328.313 679.555 324.242 673.265 316.102L672.155 326H656.523V189.285L674.283 187.157V240.715ZM695.095 314.345C702.742 314.345 708.631 311.323 712.763 305.28C716.956 299.175 719.053 289.802 719.053 277.16C719.053 264.518 717.172 255.207 713.41 249.225C709.71 243.182 704.345 240.16 697.315 240.16C692.259 240.16 687.788 241.702 683.903 244.785C680.018 247.807 676.811 251.26 674.283 255.145V302.32C676.75 306.02 679.771 308.949 683.348 311.107C686.925 313.266 690.84 314.345 695.095 314.345ZM805.283 181.885C808.983 181.885 811.943 183.026 814.163 185.307C816.445 187.589 817.586 190.364 817.586 193.632C817.586 197.024 816.445 199.892 814.163 202.235C811.943 204.517 808.983 205.657 805.283 205.657C801.645 205.657 798.685 204.517 796.403 202.235C794.183 199.892 793.073 197.024 793.073 193.632C793.073 190.364 794.183 187.589 796.403 185.307C798.685 183.026 801.645 181.885 805.283 181.885ZM818.511 228.505V312.495H845.613V326H771.058V312.495H800.751V242.01H771.983V228.505H818.511ZM939.891 294.272H891.606L881.986 326H863.578L904.648 198.535H927.773L968.936 326H949.511L939.891 294.272ZM895.861 279.565H935.636L915.841 213.335L895.861 279.565ZM990.231 326V312.865H1005.03V241.64H990.231V228.505H1018.63L1021.87 251.352C1025.57 243.274 1030.1 237.077 1035.46 232.76C1040.89 228.382 1047.92 226.193 1056.55 226.193C1059.39 226.193 1061.89 226.408 1064.05 226.84C1066.27 227.272 1068.52 227.827 1070.8 228.505L1068.02 262.73H1054.33V242.38H1054.24C1039.63 242.38 1029.14 252.832 1022.79 273.738V312.865H1042.59V326H990.231Z" fill="#0C0C0C"/>
<path d="M1289.88 284.726L1296.68 280.969L1289.16 267.368L1282.36 271.126C1277.15 274.01 1272.53 277.857 1268.75 282.462L1237.65 264.5L1268.75 246.538C1272.53 251.143 1277.15 254.99 1282.37 257.875L1289.16 261.632L1296.68 248.032L1289.88 244.274C1287.15 242.766 1284.66 240.862 1282.49 238.623L1301.22 227.788L1293.45 214.349L1274.73 225.15C1273.87 222.148 1273.47 219.035 1273.53 215.914L1273.67 208.144L1258.13 207.855L1257.99 215.624C1257.88 221.576 1258.89 227.494 1260.98 233.068L1229.88 251.041V215.119C1235.76 214.147 1241.4 212.071 1246.5 208.999L1253.15 204.99L1245.13 191.679L1238.48 195.688C1235.81 197.296 1232.91 198.499 1229.88 199.258V179.739H1214.34V199.258C1211.31 198.499 1208.42 197.296 1205.74 195.688L1199.09 191.679L1191.07 204.99L1197.72 208.999C1202.82 212.071 1208.46 214.147 1214.34 215.119V251.041L1183.24 233.068C1185.33 227.491 1186.36 221.567 1186.25 215.61L1186.1 207.841L1170.57 208.13L1170.71 215.9C1170.77 219.021 1170.36 222.134 1169.5 225.135L1150.77 214.349L1143 227.805L1161.74 238.627C1159.56 240.865 1157.07 242.77 1154.34 244.277L1147.55 248.032L1155.06 261.632L1161.86 257.875C1167.07 254.99 1171.69 251.143 1175.47 246.538L1206.57 264.5L1175.47 282.462C1171.69 277.857 1167.07 274.01 1161.86 271.126L1155.06 267.368L1147.55 280.969L1154.34 284.726C1157.07 286.234 1159.56 288.138 1161.74 290.377L1143 301.23L1150.77 314.686L1169.51 303.868C1170.36 306.87 1170.77 309.982 1170.71 313.104L1170.57 320.874L1186.11 321.163L1186.25 313.393C1186.36 307.435 1185.34 301.51 1183.24 295.932L1214.34 277.959V313.881C1208.46 314.853 1202.82 316.93 1197.72 320.001L1191.07 324.01L1199.09 337.321L1205.74 333.312C1208.42 331.704 1211.31 330.501 1214.34 329.742V349.262H1229.88V329.742C1232.91 330.501 1235.81 331.704 1238.48 333.312L1245.13 337.321L1253.15 324.01L1246.5 320.001C1241.4 316.93 1235.76 314.853 1229.88 313.881V277.959L1260.98 295.932C1258.89 301.509 1257.87 307.433 1257.97 313.39L1258.12 321.16L1273.66 320.87L1273.51 313.1C1273.46 309.973 1273.87 306.856 1274.73 303.851L1293.45 314.668L1301.22 301.23L1282.5 290.391C1284.67 288.149 1287.15 286.24 1289.88 284.726V284.726Z" fill="#1F86FF"/>
</svg>
